
<svg width="160" height="40" viewBox="0 0 160 40" fill="none" xmlns="http://www.w3.org/2000/svg">
  <g transform="translate(55, 12)">
    <path d="M14.7 16.8c-2.5 1.8-6 2.8-9.1 2.8-4.3 0-8.2-1.6-11.1-4.2-.2-.2 0-.5.3-.3C-2 18-1.2 20.2 5 20.2c3.1 0 6.3-.6 9.4-2 .5-.2.9.3.3.6z" fill="#FF9900"/>
    <path d="M35 0c-.7-.9-4.3-.4-5.9-.2-.5 0-.6.4-.1.7 2.9 2 5.8 2.3 6.2 2.4.6.2 1.1-.4.5-1.1-.4-.5-1.4-1.2-2.3-1.9.3.2.9.6 1.6 1.1z" fill="#FF9900"/>
    <path d="M31.6 2.4c-.8-1-1.7-1.8-2.6-2.4H8c-.9.6-1.8 1.4-2.6 2.4C3.9 4.1 2.9 6.2 2.9 8.4v3.2c0 2.2 1 4.3 2.5 6 .8 1 1.7 1.8 2.6 2.4h21c.9-.6 1.8-1.4 2.6-2.4 1.5-1.7 2.5-3.8 2.5-6V8.4c0-2.2-1-4.3-2.5-6z" fill="#252F3E"/>
  </g>
</svg>
