
<svg width="160" height="40" viewBox="0 0 160 40" fill="none" xmlns="http://www.w3.org/2000/svg">
  <path d="M45.95 23.5l-3.42-1.2-.07.23c-.5 2.05-1.05 3.77-1.64 5.17L39 29.95c-1.37 2.6-2.94 4.38-4.7 5.37-1.75.98-3.95 1.47-6.6 1.47-2.24 0-4.03-.42-5.37-1.27-1.34-.85-2-2-2-3.47 0-.76.2-1.45.62-2.05.42-.6.98-1.08 1.7-1.43.72-.35 1.52-.52 2.4-.52.72 0 1.38.12 2 .35.6.23 1.1.56 1.47.98.37.42.56.9.56 1.43 0 .5-.17.94-.5 1.33-.34.4-.8.7-1.37.93s-1.2.35-1.87.35c-.6 0-1.15-.1-1.67-.28-.52-.2-.94-.45-1.27-.78-.33-.33-.5-.7-.5-1.1 0-.3.1-.57.3-.8.2-.23.47-.35.82-.35.23 0 .44.07.63.22.2.15.3.33.3.55 0 .15-.06.3-.17.42-.1.13-.3.2-.57.2-.1 0-.2-.02-.32-.05.1.25.35.47.75.65.4.17.83.25 1.3.25.6 0 1.15-.13 1.65-.4.5-.27.9-.63 1.2-1.1.3-.47.45-.98.45-1.53 0-.72-.27-1.35-.8-1.9-.53-.55-1.22-.97-2.07-1.27-.85-.3-1.77-.45-2.75-.45-1.25 0-2.37.23-3.35.7-.98.47-1.75 1.1-2.32 1.9-.57.8-.85 1.67-.85 2.62 0 1.05.3 1.97.9 2.77.6.8 1.47 1.42 2.62 1.87 1.15.45 2.52.67 4.1.67 2.37 0 4.35-.42 5.95-1.27 1.6-.85 2.9-2.17 3.9-3.95 1-1.78 1.75-4.05 2.25-6.82l.23-1.43c.15-1.05.35-1.97.6-2.77.25-.8.52-1.45.82-1.95.3-.5.65-.75 1.05-.75.3 0 .55.13.75.4.2.27.3.62.3 1.05 0 .35-.05.7-.15 1.05-.1.35-.22.7-.37 1.05l-.45 1.05c-.25.6-.45 1.25-.6 1.95-.15.7-.22 1.37-.22 2.02 0 .8.15 1.45.45 1.95.3.5.7.75 1.2.75.65 0 1.27-.32 1.87-.95.6-.63 1.15-1.45 1.65-2.45.5-1 .9-2.02 1.2-3.07l.15-.45-.82-.3zm-24.8-5.65c-.35-.42-.85-.77-1.5-1.05-.65-.28-1.42-.42-2.32-.42-1.15 0-2.12.23-2.92.7-.8.47-1.42 1.1-1.85 1.9-.43.8-.65 1.7-.65 2.7 0 1.15.25 2.15.75 3 .5.85 1.2 1.52 2.1 2 .9.48 1.95.72 3.15.72.9 0 1.7-.15 2.4-.45.7-.3 1.25-.7 1.65-1.2.4-.5.6-1.05.6-1.65 0-.45-.12-.85-.37-1.2-.25-.35-.6-.62-1.05-.82-.45-.2-.97-.3-1.57-.3-.65 0-1.22.12-1.72.37-.5.25-.9.6-1.2 1.05-.3.45-.45.97-.45 1.57 0 .45.1.85.3 1.2.2.35.47.62.82.82l-.15.22c-.4-.12-.75-.37-1.05-.75-.3-.38-.52-.82-.67-1.32-.15-.5-.22-1.02-.22-1.57 0-.8.17-1.52.52-2.17.35-.65.85-1.17 1.5-1.57.65-.4 1.42-.6 2.32-.6.65 0 1.25.1 1.8.3.55.2.97.47 1.27.82.3.35.45.75.45 1.2 0 .3-.07.57-.22.82-.15.25-.35.45-.6.6-.25.15-.52.22-.82.22-.35 0-.65-.1-.9-.3-.25-.2-.37-.45-.37-.75 0-.2.05-.37.15-.52.1-.15.25-.27.45-.37.2-.1.42-.15.67-.15.15 0 .3.02.45.07.15.05.27.12.37.22l.15.15c0-.25-.12-.47-.35-.67zm39.3 2.5c.15-.45.32-.9.52-1.35.2-.45.42-.82.67-1.12.25-.3.52-.45.82-.45.2 0 .37.07.52.22.15.15.22.35.22.6 0 .3-.1.7-.3 1.2-.2.5-.47 1.02-.82 1.57-.35.55-.75 1.05-1.2 1.5-.45.45-.92.82-1.42 1.12-.5.3-1 .45-1.5.45-.6 0-1.07-.2-1.42-.6-.35-.4-.52-.92-.52-1.57 0-.4.07-.85.22-1.35-1.15 2.35-2.52 3.52-4.12 3.52-.75 0-1.35-.25-1.8-.75-.45-.5-.67-1.15-.67-1.95 0-.75.15-1.47.45-2.17.3-.7.72-1.28 1.27-1.73.55-.45 1.2-.67 1.95-.67.5 0 .92.15 1.27.45.35.3.62.7.82 1.2l.45-1.35h1.05l-1.8 5.1c-.1.3-.2.62-.27.97-.07.35-.1.67-.1.97 0 .35.07.62.22.82.15.2.35.3.6.3.35 0 .72-.15 1.12-.45.4-.3.77-.7 1.12-1.2.35-.5.67-1.05.97-1.65.3-.6.55-1.2.75-1.8zm-7.2 2.7c.45-.6.82-1.25 1.12-1.95.3-.7.45-1.32.45-1.87 0-.4-.1-.72-.3-.97-.2-.25-.45-.37-.75-.37-.45 0-.85.2-1.2.6-.35.4-.62.92-.82 1.57-.2.65-.3 1.32-.3 2.02 0 .45.1.8.3 1.05.2.25.45.37.75.37.25 0 .5-.15.75-.45zm16.65-2.7c.15-.45.32-.9.52-1.35.2-.45.42-.82.67-1.12.25-.3.52-.45.82-.45.2 0 .37.07.52.22.15.15.22.35.22.6 0 .3-.1.7-.3 1.2-.2.5-.47 1.02-.82 1.57-.35.55-.75 1.05-1.2 1.5-.45.45-.92.82-1.42 1.12-.5.3-1 .45-1.5.45-.6 0-1.07-.2-1.42-.6-.35-.4-.52-.92-.52-1.57 0-.4.07-.85.22-1.35-1.15 2.35-2.52 3.52-4.12 3.52-.75 0-1.35-.25-1.8-.75-.45-.5-.67-1.15-.67-1.95 0-.75.15-1.47.45-2.17.3-.7.72-1.28 1.27-1.73.55-.45 1.2-.67 1.95-.67.5 0 .92.15 1.27.45.35.3.62.7.82 1.2l.45-1.35h1.05l-1.8 5.1c-.1.3-.2.62-.27.97-.07.35-.1.67-.1.97 0 .35.07.62.22.82.15.2.35.3.6.3.35 0 .72-.15 1.12-.45.4-.3.77-.7 1.12-1.2.35-.5.67-1.05.97-1.65.3-.6.55-1.2.75-1.8zm-7.2 2.7c.45-.6.82-1.25 1.12-1.95.3-.7.45-1.32.45-1.87 0-.4-.1-.72-.3-.97-.2-.25-.45-.37-.75-.37-.45 0-.85.2-1.2.6-.35.4-.62.92-.82 1.57-.2.65-.3 1.32-.3 2.02 0 .45.1.8.3 1.05.2.25.45.37.75.37.25 0 .5-.15.75-.45z" fill="#FF9900"/>
  <path d="M67 10c-5.5 0-10 4.5-10 10s4.5 10 10 10 10-4.5 10-10-4.5-10-10-10zm0 18c-4.4 0-8-3.6-8 1.05V11.05C59 6.4 62.6 10 67 10s8-3.6 8 1.05v17.9c0 4.65-3.6 1.05-8 1.05z" fill="#FF9900"/>
</svg>
