
<svg width="160" height="40" viewBox="0 0 160 40" fill="none" xmlns="http://www.w3.org/2000/svg">
  <g transform="translate(20, 8)">
    <path d="M37.9 19l-3.4-1.2v.2c-.5 2-1 3.8-1.6 5.2L31 25.4c-1.4 2.6-3 4.4-4.7 5.4-1.8 1-4 1.5-6.6 1.5-2.2 0-4-.4-5.4-1.3-1.3-.8-2-2-2-3.5 0-.7.2-1.4.6-2 .4-.6 1-1 1.7-1.4.7-.4 1.5-.5 2.4-.5.7 0 1.4 0 2 .3.6.2 1 .6 1.5 1 .3.4.5.9.5 1.4 0 .5-.2 1-.5 1.3l-1.4 1-1.9.3-1.6-.3c-.5-.2-1-.4-1.3-.8-.3-.3-.5-.7-.5-1.1 0-.3.1-.6.3-.8.2-.2.5-.3.8-.3.2 0 .4 0 .6.2.2.1.3.3.3.5l-.2.4-.5.2h-.3c0 .2.3.5.7.6l1.3.3c.6 0 1.2-.1 1.7-.4.5-.3.9-.6 1.2-1.1.3-.5.4-1 .4-1.5 0-.7-.2-1.4-.8-2-.5-.5-1.2-1-2-1.2-.9-.3-1.8-.5-2.8-.5-1.2 0-2.4.2-3.3.7-1 .5-1.8 1.1-2.3 2-.6.7-.9 1.6-.9 2.6 0 1 .3 2 1 2.8.6.8 1.4 1.4 2.6 1.9 1.1.4 2.5.7 4 .7 2.4 0 4.4-.4 6-1.3 1.6-.8 2.9-2.2 3.9-4 1-1.8 1.7-4 2.2-6.8l.2-1.4c.2-1.1.4-2 .6-2.8.3-.8.5-1.4.8-2 .3-.5.7-.7 1-.7.3 0 .6.1.8.4.2.3.3.6.3 1l-.1 1-.4 1-.4 1.1-.6 2-.2 2c0 .8.1 1.4.4 2 .3.5.7.7 1.2.7.6 0 1.3-.3 1.9-1 .6-.6 1.1-1.4 1.6-2.4.5-1 .9-2 1.2-3.1v-.4l-.8-.3zm-24.8-5.7c-.3-.4-.8-.8-1.5-1-.6-.3-1.4-.4-2.3-.4-1.1 0-2.1.2-3 .7-.7.5-1.4 1.1-1.8 1.9-.4.8-.6 1.7-.6 2.7 0 1.1.2 2.1.7 3 .5.8 1.2 1.5 2.1 2 1 .4 2 .7 3.2.7.9 0 1.7-.1 2.4-.4.7-.3 1.2-.7 1.6-1.2.4-.5.6-1 .6-1.7 0-.4-.1-.8-.4-1.2-.2-.3-.6-.6-1-.8-.5-.2-1-.3-1.6-.3-.6 0-1.2.1-1.7.4-.5.2-.9.6-1.2 1-.3.5-.4 1-.4 1.6 0 .4.1.8.3 1.2.2.3.5.6.8.8l-.1.2c-.4-.1-.8-.4-1-.8-.3-.3-.5-.8-.7-1.3-.1-.5-.2-1-.2-1.6 0-.8.2-1.5.5-2.2.4-.6.8-1.2 1.5-1.6.7-.4 1.4-.6 2.3-.6.7 0 1.3.1 1.8.3.6.2 1 .5 1.3.8.3.4.4.8.4 1.2 0 .3-.1.6-.2.8-.1.3-.3.5-.6.6-.2.2-.5.2-.8.2-.3 0-.6-.1-.9-.3-.2-.2-.4-.4-.4-.7 0-.2.1-.4.2-.5l.4-.4.7-.1.4.1.4.2.1.1c0-.2-.1-.4-.3-.7z" fill="#FF9900"/>
    <path d="M58 0c-5.5 0-10 4.5-10 10s4.5 10 10 10 10-4.5 10-10S63.5 0 58 0zm0 18c-4.4 0-8-3.6-8-8s3.6-8 8-8 8 3.6 8 8-3.6 8-8 8z" fill="#FF9900"/>
  </g>
</svg>
