
<svg width="160" height="40" viewBox="0 0 160 40" fill="none" xmlns="http://www.w3.org/2000/svg">
  <g transform="translate(30, 8)">
    <path d="M50 12a5 5 0 1 1-10 0 5 5 0 0 1 10 0zM65 12a5 5 0 1 1-10 0 5 5 0 0 1 10 0zM80 12a5 5 0 1 1-10 0 5 5 0 0 1 10 0z" fill="#049FD9"/>
    <path d="M45 0a6 6 0 0 0-6 6c0 1 .25 2 .7 2.8L35 12l4.7 3.2A6 6 0 0 0 51 12l-4.7-3.2c.45-.8.7-1.8.7-2.8a6 6 0 0 0-2-4.5zM65 0a6 6 0 0 0-6 6c0 1 .25 2 .7 2.8L55 12l4.7 3.2A6 6 0 0 0 71 12l-4.7-3.2c.45-.8.7-1.8.7-2.8a6 6 0 0 0-2-4.5z" fill="#049FD9"/>
  </g>
</svg>
