
<svg width="160" height="40" viewBox="0 0 160 40" fill="none" xmlns="http://www.w3.org/2000/svg">
  <path d="M50 20c0 2.76 2.24 5 5 5s5-2.24 5-5-2.24-5-5-5-5 2.24-5 5zm15 0c0 2.76 2.24 5 5 5s5-2.24 5-5-2.24-5-5-5-5 2.24-5 5zm15 0c0 2.76 2.24 5 5 5s5-2.24 5-5-2.24-5-5-5-5 2.24-5 5zm15 0c0 2.76 2.24 5 5 5s5-2.24 5-5-2.24-5-5-5-5 2.24-5 5zm15 0c0 2.76 2.24 5 5 5s5-2.24 5-5-2.24-5-5-5-5 2.24-5 5z" fill="#1BA0D7"/>
  <path d="M80 8c-3.31 0-6 2.69-6 6 0 1.01.25 1.97.7 2.8L70 20l4.7 3.2c1.14 1.55 3 2.8 5.3 2.8s4.16-1.25 5.3-2.8L90 20l-4.7-3.2c.45-.83.7-1.79.7-2.8 0-3.31-2.69-6-6-6z" fill="#1BA0D7"/>
</svg>
