
<svg width="160" height="40" viewBox="0 0 160 40" fill="none" xmlns="http://www.w3.org/2000/svg">
  <g transform="translate(55, 12)">
    <rect x="0" y="0" width="8" height="8" fill="#F25022"/>
    <rect x="9" y="0" width="8" height="8" fill="#00A4EF"/>
    <rect x="0" y="9" width="8" height="8" fill="#7FBA00"/>
    <rect x="9" y="9" width="8" height="8" fill="#FFB900"/>
    <path d="M25 3h2v12h-2zm4 0h6c1.7 0 3 1.3 3 3s-1.3 3-3 3h-4v6h-2zm2 2v2h4c.6 0 1-.4 1-1s-.4-1-1-1zm10-2h2v12h-2zm4 0h2l6 8v-8h2v12h-2l-6-8v8h-2z" fill="currentColor"/>
  </g>
</svg>
