
<svg width="160" height="40" viewBox="0 0 160 40" fill="none" xmlns="http://www.w3.org/2000/svg">
  <rect x="20" y="8" width="12" height="12" fill="#F25022"/>
  <rect x="33" y="8" width="12" height="12" fill="#7FBA00"/>
  <rect x="20" y="21" width="12" height="12" fill="#00A4EF"/>
  <rect x="33" y="21" width="12" height="12" fill="#FFB900"/>
  <path d="M60 25V15h8.5c2.2 0 4 1.8 4 4s-1.8 4-4 4H64v2h-4zm4-8v4h4.5c1.1 0 2-0.9 2-2s-0.9-2-2-2H64z" fill="#000"/>
  <path d="M75 15h4v10h-4V15z" fill="#000"/>
  <path d="M82 15h4l6 6.5V15h4v10h-4l-6-6.5V25h-4V15z" fill="#000"/>
</svg>
